<svg width="30" height="40" viewBox="0 0 30 40" fill="none" xmlns="http://www.w3.org/2000/svg">
<path d="M28.5714 31.4286H27.5V16.25C27.5 9.9509 22.8438 4.74554 16.7857 3.87947V2.14286C16.7857 1.15625 15.9866 0.357147 15 0.357147C14.0134 0.357147 13.2143 1.15625 13.2143 2.14286V3.87947C7.15625 4.74554 2.5 9.9509 2.5 16.25V31.4286H1.42857C0.638393 31.4286 0 32.067 0 32.8572V34.2857C0 34.4822 0.160714 34.6429 0.357143 34.6429H10C10 37.4018 12.2411 39.6429 15 39.6429C17.7589 39.6429 20 37.4018 20 34.6429H29.6429C29.8393 34.6429 30 34.4822 30 34.2857V32.8572C30 32.067 29.3616 31.4286 28.5714 31.4286ZM15 36.7857C13.817 36.7857 12.8571 35.8259 12.8571 34.6429H17.1429C17.1429 35.8259 16.183 36.7857 15 36.7857ZM5.71429 31.4286V16.25C5.71429 13.7679 6.67857 11.4375 8.43304 9.68304C10.1875 7.92858 12.5179 6.96429 15 6.96429C17.4821 6.96429 19.8125 7.92858 21.567 9.68304C23.3214 11.4375 24.2857 13.7679 24.2857 16.25V31.4286H5.71429Z" fill="#F4F4F4"/>
</svg>
