<svg width="33" height="33" viewBox="0 0 33 33" fill="none" xmlns="http://www.w3.org/2000/svg">
<path d="M15.0026 16.0578C15.0026 16.5117 15.1828 16.947 15.5034 17.268C15.8241 17.5889 16.259 17.7692 16.7125 17.7692C17.1659 17.7692 17.6008 17.5889 17.9215 17.268C18.2421 16.947 18.4223 16.5117 18.4223 16.0578C18.4223 15.6039 18.2421 15.1686 17.9215 14.8477C17.6008 14.5267 17.1659 14.3464 16.7125 14.3464C16.259 14.3464 15.8241 14.5267 15.5034 14.8477C15.1828 15.1686 15.0026 15.6039 15.0026 16.0578ZM22.1269 16.0578C22.1269 16.5117 22.3071 16.947 22.6277 17.268C22.9484 17.5889 23.3833 17.7692 23.8368 17.7692C24.2902 17.7692 24.7251 17.5889 25.0458 17.268C25.3665 16.947 25.5466 16.5117 25.5466 16.0578C25.5466 15.6039 25.3665 15.1686 25.0458 14.8477C24.7251 14.5267 24.2902 14.3464 23.8368 14.3464C23.3833 14.3464 22.9484 14.5267 22.6277 14.8477C22.3071 15.1686 22.1269 15.6039 22.1269 16.0578ZM7.8783 16.0578C7.8783 16.5117 8.05844 16.947 8.3791 17.268C8.69976 17.5889 9.13466 17.7692 9.58814 17.7692C10.0416 17.7692 10.4765 17.5889 10.7972 17.268C11.1178 16.947 11.298 16.5117 11.298 16.0578C11.298 15.6039 11.1178 15.1686 10.7972 14.8477C10.4765 14.5267 10.0416 14.3464 9.58814 14.3464C9.13466 14.3464 8.69976 14.5267 8.3791 14.8477C8.05844 15.1686 7.8783 15.6039 7.8783 16.0578ZM31.4313 9.86821C30.6262 7.95357 29.4721 6.23502 28.0009 4.75893C26.5401 3.29138 24.8058 2.12485 22.8964 1.3254C20.9372 0.501783 18.8569 0.0846252 16.7125 0.0846252H16.6412C14.4825 0.0953216 12.3916 0.523175 10.4252 1.36462C8.53216 2.17227 6.81416 3.34087 5.36698 4.80528C3.91006 6.27781 2.76661 7.98922 1.97581 9.89674C1.15651 11.872 0.7433 13.972 0.753986 16.1327C0.766074 18.6088 1.35133 21.0484 2.46382 23.26V28.6795C2.46382 29.1145 2.63646 29.5317 2.94375 29.8392C3.25105 30.1468 3.66783 30.3196 4.10241 30.3196H9.52046C11.73 31.4331 14.1674 32.0189 16.6412 32.031H16.716C18.8497 32.031 20.9194 31.6174 22.8679 30.8081C24.7677 30.0182 26.4954 28.8652 27.9546 27.4138C29.4258 25.9555 30.5835 24.2512 31.3921 22.3508C32.2328 20.3827 32.6602 18.2898 32.6709 16.1291C32.6816 13.9578 32.2613 11.8506 31.4313 9.86821ZM26.0489 25.4849C23.5518 27.9593 20.239 29.3213 16.7125 29.3213H16.6519C14.5039 29.3106 12.3702 28.7758 10.4858 27.7703L10.1866 27.6099H5.17106V22.5897L5.01077 22.2902C4.00624 20.4041 3.47191 18.2684 3.46123 16.1184C3.44698 12.5637 4.80416 9.22643 7.29411 6.71279C9.78049 4.19915 13.104 2.80863 16.6555 2.79436H16.716C18.4971 2.79436 20.2247 3.14021 21.8526 3.82478C23.4414 4.49152 24.8662 5.45062 26.0916 6.67714C27.3134 7.90008 28.2752 9.32983 28.9413 10.92C29.6324 12.5673 29.9779 14.3143 29.9708 16.1184C29.9494 19.6696 28.5566 22.9962 26.0489 25.4849Z" fill="#F2F2F2"/>
</svg>
