<svg width="26" height="25" viewBox="0 0 26 25" fill="none" xmlns="http://www.w3.org/2000/svg">
<path fill-rule="evenodd" clip-rule="evenodd" d="M12.9584 2.08333C18.7115 2.08333 23.375 6.74687 23.375 12.5C23.375 18.2531 18.7115 22.9167 12.9584 22.9167C7.20523 22.9167 2.54169 18.2531 2.54169 12.5C2.54169 6.74687 7.20523 2.08333 12.9584 2.08333ZM15.875 14.4344C15.0971 15.1992 14.0493 15.6269 12.9584 15.625C11.8674 15.6269 10.8196 15.1992 10.0417 14.4344C9.9445 14.3363 9.8288 14.2586 9.70131 14.2057C9.57381 14.1527 9.43707 14.1257 9.29902 14.126C9.16098 14.1264 9.02439 14.1542 8.89718 14.2079C8.76998 14.2615 8.65471 14.3399 8.55807 14.4385C8.46143 14.537 8.38534 14.6538 8.33424 14.7821C8.28313 14.9103 8.25803 15.0474 8.26038 15.1855C8.26273 15.3235 8.2925 15.4597 8.34794 15.5861C8.40339 15.7125 8.48341 15.8266 8.58335 15.9219C9.75068 17.0685 11.3221 17.7102 12.9584 17.7083C14.5946 17.7102 16.166 17.0685 17.3334 15.9219C17.526 15.7275 17.6345 15.4651 17.6352 15.1914C17.636 14.9177 17.529 14.6547 17.3374 14.4593C17.1458 14.2639 16.885 14.1517 16.6113 14.147C16.3377 14.1424 16.0732 14.2456 15.875 14.4344ZM9.31252 8.33333C8.89812 8.33333 8.50069 8.49795 8.20767 8.79097C7.91464 9.084 7.75002 9.48143 7.75002 9.89583C7.75002 10.3102 7.91464 10.7077 8.20767 11.0007C8.50069 11.2937 8.89812 11.4583 9.31252 11.4583C9.72692 11.4583 10.1244 11.2937 10.4174 11.0007C10.7104 10.7077 10.875 10.3102 10.875 9.89583C10.875 9.48143 10.7104 9.084 10.4174 8.79097C10.1244 8.49795 9.72692 8.33333 9.31252 8.33333ZM16.6042 8.33333C16.1898 8.33333 15.7924 8.49795 15.4993 8.79097C15.2063 9.084 15.0417 9.48143 15.0417 9.89583C15.0417 10.3102 15.2063 10.7077 15.4993 11.0007C15.7924 11.2937 16.1898 11.4583 16.6042 11.4583C17.0186 11.4583 17.416 11.2937 17.709 11.0007C18.0021 10.7077 18.1667 10.3102 18.1667 9.89583C18.1667 9.48143 18.0021 9.084 17.709 8.79097C17.416 8.49795 17.0186 8.33333 16.6042 8.33333Z" fill="#F2F2F2"/>
</svg>
