<svg width="33" height="33" viewBox="0 0 33 33" fill="none" xmlns="http://www.w3.org/2000/svg">
<path d="M31.9882 6.63141C31.493 5.35028 30.779 4.18933 29.8861 3.21356C28.9925 2.23487 27.9389 1.45712 26.7827 0.922606C25.5837 0.366144 24.2978 0.0813156 22.9995 0.0846543C21.1781 0.0846543 19.401 0.641912 17.8567 1.69451C17.4873 1.94631 17.1363 2.22287 16.8038 2.52421C16.4713 2.22287 16.1203 1.94631 15.7509 1.69451C14.2066 0.641912 12.4295 0.0846543 10.6081 0.0846543C9.29655 0.0846543 8.02564 0.365347 6.82492 0.922606C5.66484 1.45922 4.6193 2.23113 3.72153 3.21356C2.82745 4.18823 2.11323 5.34945 1.61935 6.63141C1.10582 7.9647 0.843506 9.38055 0.843506 10.8377C0.843506 12.2122 1.09473 13.6446 1.59349 15.1017C2.01097 16.3194 2.60948 17.5826 3.37425 18.8581C4.58605 20.8766 6.25227 22.9818 8.3212 25.1159C11.7497 28.6534 15.145 31.0971 15.2891 31.1962L16.1647 31.8236C16.5526 32.1002 17.0513 32.1002 17.4393 31.8236L18.3149 31.1962C18.4589 31.093 21.8505 28.6534 25.2827 25.1159C27.3516 22.9818 29.0179 20.8766 30.2297 18.8581C30.9944 17.5826 31.5966 16.3194 32.0104 15.1017C32.5092 13.6446 32.7604 12.2122 32.7604 10.8377C32.7641 9.38055 32.5018 7.9647 31.9882 6.63141ZM16.8038 28.5585C16.8038 28.5585 3.65134 19.1429 3.65134 10.8377C3.65134 6.63141 6.76581 3.22181 10.6081 3.22181C13.3088 3.22181 15.6511 4.90597 16.8038 7.36616C17.9565 4.90597 20.2988 3.22181 22.9995 3.22181C26.8418 3.22181 29.9563 6.63141 29.9563 10.8377C29.9563 19.1429 16.8038 28.5585 16.8038 28.5585Z" fill="#DB0031"/>
</svg>
