<svg width="21" height="11" viewBox="0 0 21 11" fill="none" xmlns="http://www.w3.org/2000/svg">
<path d="M15.625 0.291672H11.4583V2.37501H15.625C17.3438 2.37501 18.75 3.78126 18.75 5.50001C18.75 7.21876 17.3438 8.62501 15.625 8.62501H11.4583V10.7083H15.625C18.5 10.7083 20.8333 8.37501 20.8333 5.50001C20.8333 2.62501 18.5 0.291672 15.625 0.291672ZM9.375 8.62501H5.20833C3.48958 8.62501 2.08333 7.21876 2.08333 5.50001C2.08333 3.78126 3.48958 2.37501 5.20833 2.37501H9.375V0.291672H5.20833C2.33333 0.291672 0 2.62501 0 5.50001C0 8.37501 2.33333 10.7083 5.20833 10.7083H9.375V8.62501ZM6.25 4.45834H14.5833V6.54167H6.25V4.45834Z" fill="#F2F2F2"/>
</svg>
