<svg width="31" height="30" viewBox="0 0 31 30" fill="none" xmlns="http://www.w3.org/2000/svg">
<path d="M30.7973 27.0729L20.8284 17.6537C22.3754 15.7641 23.2122 13.4537 23.2122 11.0237C23.2122 8.11487 22.0107 5.38741 19.8381 3.33094C17.6654 1.27446 14.7711 0.142853 11.6964 0.142853C8.62169 0.142853 5.72738 1.27809 3.55473 3.33094C1.37825 5.38378 0.180603 8.11487 0.180603 11.0237C0.180603 13.9289 1.38209 16.6636 3.55473 18.7164C5.72738 20.7729 8.61785 21.9045 11.6964 21.9045C14.2683 21.9045 16.7096 21.1138 18.7095 19.6558L28.6784 29.0713C28.7076 29.099 28.7423 29.1209 28.7805 29.1359C28.8187 29.1508 28.8597 29.1585 28.901 29.1585C28.9424 29.1585 28.9833 29.1508 29.0215 29.1359C29.0597 29.1209 29.0944 29.099 29.1237 29.0713L30.7973 27.4936C30.8265 27.466 30.8497 27.4332 30.8656 27.3971C30.8814 27.361 30.8896 27.3223 30.8896 27.2833C30.8896 27.2442 30.8814 27.2055 30.8656 27.1694C30.8497 27.1333 30.8265 27.1005 30.7973 27.0729ZM17.7768 16.7688C16.1492 18.303 13.9919 19.148 11.6964 19.148C9.40093 19.148 7.24363 18.303 5.61607 16.7688C3.99234 15.2309 3.09794 13.1926 3.09794 11.0237C3.09794 8.85477 3.99234 6.8128 5.61607 5.2786C7.24363 3.74441 9.40093 2.89933 11.6964 2.89933C13.9919 2.89933 16.153 3.74078 17.7768 5.2786C19.4005 6.81643 20.2949 8.85477 20.2949 11.0237C20.2949 13.1926 19.4005 15.2346 17.7768 16.7688Z" fill="#F4F4F4"/>
</svg>
