<svg width="23" height="23" viewBox="0 0 23 23" fill="none" xmlns="http://www.w3.org/2000/svg">
<path d="M11.5821 6.22956C14.9467 6.22956 17.9473 8.12048 19.4121 11.1122C17.9473 14.104 14.9467 15.9949 11.5821 15.9949C8.2175 15.9949 5.21688 14.104 3.75208 11.1122C5.21688 8.12048 8.2175 6.22956 11.5821 6.22956ZM11.5821 4.45404C7.14332 4.45404 3.35259 7.21497 1.81677 11.1122C3.35259 15.0095 7.14332 17.7704 11.5821 17.7704C16.0209 17.7704 19.8116 15.0095 21.3474 11.1122C19.8116 7.21497 16.0209 4.45404 11.5821 4.45404ZM11.5821 8.89283C12.8072 8.89283 13.8015 9.88712 13.8015 11.1122C13.8015 12.3373 12.8072 13.3316 11.5821 13.3316C10.357 13.3316 9.36271 12.3373 9.36271 11.1122C9.36271 9.88712 10.357 8.89283 11.5821 8.89283ZM11.5821 7.11731C9.38047 7.11731 7.5872 8.91058 7.5872 11.1122C7.5872 13.3139 9.38047 15.1071 11.5821 15.1071C13.7837 15.1071 15.577 13.3139 15.577 11.1122C15.577 8.91058 13.7837 7.11731 11.5821 7.11731Z" fill="#222222"/>
</svg>
